<svg width="35" height="33" viewBox="0 0 35 33" fill="none" xmlns="http://www.w3.org/2000/svg">
<path d="M17.5 0C23.164 0 27.7555 4.29367 27.7555 9.5902C27.7555 14.8867 23.164 19.1804 17.5 19.1804C11.836 19.1804 7.24441 14.8867 7.24441 9.5902C7.2513 4.29628 11.8394 0.00647753 17.5 0ZM17.5 16.3304C21.4808 16.3304 24.7078 13.3127 24.7078 9.59023C24.7078 5.86774 21.4808 2.85002 17.5 2.85002C13.5192 2.85002 10.2921 5.86771 10.2921 9.5902C10.2965 13.3111 13.5213 16.3264 17.5 16.3304ZM32.001 33L31.4372 30.0759C30.1871 23.8548 24.4238 19.2104 17.5001 19.2089H17.4992C10.5817 19.2089 4.82187 23.8435 3.57668 29.9733L3.56272 30.056L3.00047 32.9715L0 32.4614L0.563805 29.5401C2.09311 21.991 9.09207 16.359 17.4977 16.359H17.5001C25.9138 16.361 32.917 22.0055 34.418 29.4658L34.4346 29.5658L35 32.4941L32.001 33Z" fill="#0E67A7"/>
</svg>
