<svg width="41" height="43" viewBox="0 0 41 43" fill="none" xmlns="http://www.w3.org/2000/svg">
<path d="M4.58455 0H36.372C37.5764 0 38.7314 0.494572 39.583 1.37492C40.4346 2.25526 40.9131 3.44926 40.9131 4.69426V37.5541C40.9131 38.7991 40.4346 39.9931 39.583 40.8734C38.7314 41.7538 37.5764 42.2483 36.372 42.2483H4.58455C3.38019 42.2483 2.22515 41.7538 1.37353 40.8734C0.521919 39.9931 0.0434875 38.7991 0.0434875 37.5541V4.69426C0.0434875 3.44926 0.521919 2.25526 1.37353 1.37492C2.22515 0.494572 3.38019 0 4.58455 0ZM34.1015 4.69426H28.4251C26.3175 4.69426 24.2962 5.55976 22.8059 7.10036C21.3155 8.64097 20.4783 10.7305 20.4783 12.9092V18.777H15.9372V25.8184H20.4783V42.2483H27.2899V25.8184H34.1015V18.777H27.2899V14.0828C27.2899 13.4603 27.5291 12.8633 27.9549 12.4231C28.3807 11.9829 28.9582 11.7356 29.5604 11.7356H34.1015V4.69426Z" fill="white"/>
</svg>
