<svg width="41" height="43" viewBox="0 0 41 43" fill="none" xmlns="http://www.w3.org/2000/svg">
<path d="M20.5217 15.8854C19.5194 15.8854 18.5396 16.1926 17.7062 16.7683C16.8728 17.3439 16.2232 18.1621 15.8396 19.1194C15.4561 20.0766 15.3557 21.13 15.5512 22.1462C15.7468 23.1624 16.2295 24.0959 16.9382 24.8286C17.6469 25.5612 18.5499 26.0602 19.533 26.2623C20.5161 26.4644 21.535 26.3607 22.4611 25.9642C23.3871 25.5677 24.1786 24.8962 24.7354 24.0347C25.2923 23.1732 25.5895 22.1603 25.5895 21.1242C25.5895 20.4362 25.4584 19.755 25.2038 19.1194C24.9491 18.4838 24.5758 17.9062 24.1052 17.4198C23.6346 16.9333 23.0759 16.5474 22.4611 16.2842C21.8462 16.0209 21.1872 15.8854 20.5217 15.8854ZM40.8134 10.71C40.8027 9.07865 40.5121 7.46226 39.9552 5.93589C39.545 4.81897 38.9104 3.80466 38.0932 2.95989C37.276 2.11511 36.2948 1.45908 35.2143 1.03508C33.7377 0.459374 32.1741 0.158982 30.596 0.147869C27.96 -1.34903e-07 27.1834 0 20.5217 0C13.86 0 13.0834 -1.34903e-07 10.4473 0.147869C8.86929 0.158982 7.30565 0.459374 5.82909 1.03508C4.74862 1.45908 3.76741 2.11511 2.95021 2.95989C2.133 3.80466 1.49838 4.81897 1.08822 5.93589C0.531297 7.46226 0.240708 9.07865 0.229957 10.71C0.0869139 13.435 0.0869141 14.2377 0.0869141 21.1242C0.0869141 28.0106 0.0869139 28.8134 0.229957 31.5384C0.251953 33.1754 0.542149 34.7968 1.08822 36.3336C1.49656 37.4454 2.13066 38.4538 2.94778 39.2909C3.76148 40.1408 4.7448 40.7968 5.82909 41.2132C7.30565 41.789 8.86929 42.0893 10.4473 42.1005C13.0834 42.2483 13.86 42.2483 20.5217 42.2483C27.1834 42.2483 27.96 42.2483 30.596 42.1005C32.1741 42.0893 33.7377 41.789 35.2143 41.2132C36.2986 40.7968 37.2819 40.1408 38.0956 39.2909C38.9127 38.4538 39.5468 37.4454 39.9552 36.3336C40.5116 34.7997 40.8021 33.1765 40.8134 31.5384C40.9565 28.8134 40.9565 28.0106 40.9565 21.1242C40.9565 14.2377 40.9565 13.435 40.8134 10.71ZM35.623 27.6093C35.5574 28.9129 35.2883 30.1969 34.826 31.4116C34.4293 32.4249 33.8396 33.3454 33.0918 34.1184C32.3441 34.8913 31.4537 35.501 30.4734 35.9111C29.2872 36.3623 28.0382 36.612 26.7747 36.6504H14.2687C13.0052 36.612 11.7562 36.3623 10.57 35.9111C9.5566 35.5218 8.64148 34.9008 7.893 34.0944C7.15258 33.3366 6.58077 32.4211 6.21735 31.4116C5.77914 30.1867 5.54424 28.894 5.52257 27.5882V14.6602C5.54424 13.3543 5.77914 12.0617 6.21735 10.8367C6.59392 9.78916 7.19469 8.84316 7.97474 8.06943C8.71107 7.30817 9.59576 6.71768 10.57 6.33725C11.7562 5.88605 13.0052 5.63637 14.2687 5.5979H26.7747C28.0382 5.63637 29.2872 5.88605 30.4734 6.33725C31.4868 6.72653 32.4019 7.34756 33.1504 8.15393C33.8908 8.91175 34.4626 9.82724 34.826 10.8367C35.2625 12.0629 35.504 13.3541 35.5413 14.6602V21.1242C35.5413 25.4757 35.6843 25.9194 35.623 27.5882V27.6093ZM32.3534 11.8929C32.1101 11.2106 31.7265 10.5909 31.2291 10.0767C30.7316 9.56245 30.1322 9.16591 29.4721 8.9144C28.5658 8.58963 27.6112 8.43232 26.6521 8.44967H14.3913C13.4273 8.45941 12.4726 8.64535 11.5713 8.99889C10.9213 9.23898 10.3282 9.61934 9.83141 10.1147C9.33462 10.61 8.94552 11.209 8.68996 11.8718C8.3932 12.8126 8.24822 13.7974 8.26083 14.7869V27.4614C8.28109 28.4568 8.46062 29.4418 8.79213 30.3765C9.03543 31.0589 9.41904 31.6786 9.91648 32.1928C10.4139 32.707 11.0134 33.1035 11.6734 33.3551C12.5453 33.6865 13.4628 33.8719 14.3913 33.9043H26.6521C27.6161 33.8945 28.5708 33.7086 29.4721 33.3551C30.1322 33.1035 30.7316 32.707 31.2291 32.1928C31.7265 31.6786 32.1101 31.0589 32.3534 30.3765C32.6954 29.4448 32.8753 28.4579 32.8847 27.4614V14.7869C32.8853 13.7894 32.7051 12.8007 32.3534 11.8718V11.8929ZM20.5217 29.1936C19.4975 29.1936 18.4835 28.9847 17.5375 28.5789C16.5916 28.1732 15.7324 27.5784 15.0092 26.8288C14.2859 26.0792 13.7129 25.1895 13.3228 24.2106C12.9328 23.2317 12.7334 22.1829 12.736 21.1242C12.736 19.5273 13.1944 17.9663 14.053 16.6388C14.9117 15.3114 16.132 14.2771 17.5596 13.667C18.9872 13.0569 20.5578 12.8983 22.0726 13.2114C23.5873 13.5244 24.9782 14.2951 26.0691 15.4257C27.16 16.5564 27.9018 17.9962 28.2007 19.5629C28.4996 21.1296 28.3421 22.7527 27.7481 24.2269C27.1542 25.701 26.1505 26.9598 24.8641 27.8439C23.5777 28.7281 22.0665 29.1978 20.5217 29.1936ZM28.6956 14.639C28.2439 14.5896 27.8258 14.3691 27.522 14.02C27.2182 13.671 27.0501 13.218 27.0501 12.7484C27.0501 12.2789 27.2182 11.8259 27.522 11.4768C27.8258 11.1277 28.2439 10.9072 28.6956 10.8578C29.1473 10.9072 29.5654 11.1277 29.8692 11.4768C30.173 11.8259 30.3411 12.2789 30.3411 12.7484C30.3411 13.218 30.173 13.671 29.8692 14.02C29.5654 14.3691 29.1473 14.5896 28.6956 14.639Z" fill="#0E67A7"/>
</svg>
