<?xml version="1.0" encoding="utf-8"?>
<!-- Generator: Adobe Illustrator 28.2.0, SVG Export Plug-In . SVG Version: 6.00 Build 0)  -->
<svg version="1.1" xmlns="http://www.w3.org/2000/svg" xmlns:xlink="http://www.w3.org/1999/xlink" x="0px" y="0px"
	 viewBox="0 0 500 500" style="enable-background:new 0 0 500 500;" xml:space="preserve">
<style type="text/css">
	.st0{display:none;}
	.st1{display:inline;fill:#DAE5DF;}
	.st2{fill-rule:evenodd;clip-rule:evenodd;fill:url(#SVGID_1_);}
	.st3{fill-rule:evenodd;clip-rule:evenodd;fill:#FFFFFF;}
	.st4{display:inline;}
	.st5{fill:#1D262D;}
</style>
<g id="BACKGROUND" class="st0">
	<rect class="st1" width="500" height="500"/>
</g>
<g id="OBJECTS">
	<g>
		<linearGradient id="SVGID_1_" gradientUnits="userSpaceOnUse" x1="255.8024" y1="30.4695" x2="255.8024" y2="460.3279">
			<stop  offset="0" style="stop-color:#4AC14B"/>
			<stop  offset="1" style="stop-color:#06853A"/>
		</linearGradient>
		<path class="st2" d="M255.81,30.47c-119.47,0-216.62,96.41-216.62,214.94c0,47.01,15.31,90.57,41.26,126.02L53.4,451.24
			l83.23-26.45c34.19,22.44,75.16,35.53,119.18,35.53c119.42,0,216.59-96.41,216.59-214.92C472.41,126.87,375.23,30.47,255.81,30.47
			L255.81,30.47z"/>
		<g>
			<path class="st3" d="M500,243.57c0,134.49-109.89,243.55-245.44,243.55c-43.05,0-83.49-10.99-118.65-30.31L0,500l44.3-130.67
				C21.94,332.62,9.09,289.58,9.09,243.57C9.09,109.05,118.98,0,254.56,0C390.11,0,500,109.05,500,243.57L500,243.57z M254.56,38.79
				c-113.82,0-206.37,91.85-206.37,204.78c0,44.78,14.59,86.29,39.31,120.06l-25.77,76.03l79.29-25.19
				c32.58,21.37,71.61,33.85,113.55,33.85c113.77,0,206.35-91.85,206.35-204.76C460.91,130.64,368.33,38.79,254.56,38.79
				L254.56,38.79z M378.5,299.67c-1.52-2.49-5.53-3.99-11.53-6.97c-6.02-2.98-35.62-17.44-41.12-19.42
				c-5.51-1.99-9.55-2.99-13.53,2.98c-4.01,5.97-15.55,19.42-19.07,23.41c-3.5,3.99-7,4.48-13.02,1.49
				c-6.03-2.98-25.42-9.31-48.4-29.62c-17.88-15.85-29.95-35.38-33.48-41.35c-3.49-5.97-0.35-9.19,2.63-12.17
				c2.72-2.69,6.03-6.97,9.03-10.44c3.01-3.5,4.01-6,6.02-9.99c2.01-3.99,1.01-7.46-0.51-10.44c-1.49-2.98-13.53-32.36-18.56-44.33
				c-4.99-11.93-10.01-11.48-13.53-11.48c-3.5,0-9.99,1.04-9.99,1.04s-12.06,1.49-17.57,7.47c-5.51,5.97-21.05,20.42-21.05,49.78
				c0,29.38,21.54,57.78,24.55,61.74c3.01,3.99,41.61,66.24,102.78,90.15c61.17,23.9,61.17,15.92,72.21,14.92
				c11.01-0.97,35.59-14.43,40.61-28.37C379.99,314.1,379.99,302.14,378.5,299.67L378.5,299.67z M378.5,299.67"/>
		</g>
	</g>
</g>
<g id="DESIGNED_BY_FREEPIK" class="st0">
	<g class="st4">
		<g id="XMLID_29_">
			<g id="XMLID_48_">
				<path id="XMLID_56_" class="st5" d="M260.1,465.72c-0.43,0.44-0.8,0.93-1.11,1.45l-0.47-0.24c-0.07-0.3-0.35-0.5-0.66-0.47
					c-0.33,0.04-0.57,0.34-0.53,0.67c0.04,0.33,0.34,0.57,0.67,0.53c0.07-0.01,0.13-0.03,0.18-0.05l0.45,0.23
					c-0.25,0.55-0.43,1.14-0.54,1.74l0.75,0.13c0.23-1.31,0.85-2.51,1.79-3.47L260.1,465.72z"/>
				<path id="XMLID_55_" class="st5" d="M265.59,463.42c-0.17,0-0.34,0.01-0.51,0.02l-0.07-0.63c0.19-0.15,0.3-0.39,0.27-0.64
					c-0.05-0.39-0.4-0.67-0.8-0.63c-0.39,0.05-0.67,0.4-0.63,0.8c0.03,0.25,0.19,0.46,0.4,0.56l0.07,0.62
					c-0.71,0.12-1.4,0.33-2.06,0.65l0.33,0.68c0.93-0.45,1.94-0.67,3-0.67c0.5,0,0.99,0.05,1.48,0.16l0.16-0.74
					C266.69,463.48,266.14,463.42,265.59,463.42z"/>
				<path id="XMLID_54_" class="st5" d="M272.19,465.97c0.33-0.04,0.57-0.34,0.53-0.67c-0.04-0.33-0.34-0.57-0.67-0.53
					c-0.31,0.04-0.54,0.3-0.53,0.61l-0.42,0.36c-0.42-0.43-0.89-0.81-1.41-1.14l-0.4,0.64c1.13,0.71,2.02,1.73,2.56,2.93l0.69-0.31
					c-0.25-0.55-0.57-1.07-0.94-1.54l0.4-0.35C272.06,465.97,272.13,465.98,272.19,465.97z"/>
				<path id="XMLID_53_" class="st5" d="M265.04,473.63c-0.39,0.02-0.77,0.03-1.16,0.03c-0.88,0-1.73-0.06-2.48-0.18
					c-0.39-0.06-0.85-0.15-1.27-0.29c1.05,1.86,3.07,3.12,5.39,3.12c2.86,0,5.26-1.92,5.95-4.5c-0.68,0.45-1.51,0.83-2.46,1.12
					C267.84,473.31,266.46,473.55,265.04,473.63z"/>
				<path id="XMLID_49_" class="st5" d="M265.59,464.94c-3.35,0-6.08,2.67-6.08,5.94c0,0.43,0.05,0.85,0.14,1.26
					c0.67,0.48,2.71,0.89,5.35,0.73c2.88-0.17,5.3-0.96,6.67-2.16c-0.01-0.2-0.02-0.39-0.05-0.58
					C271.24,467.17,268.65,464.94,265.59,464.94z M263.43,471.45c-1.02,0-1.85-0.83-1.85-1.85c0-1.02,0.83-1.85,1.85-1.85
					c1.02,0,1.85,0.83,1.85,1.85C265.28,470.62,264.45,471.45,263.43,471.45z M268.17,470.54c-0.75,0-1.36-0.61-1.36-1.36
					c0-0.75,0.61-1.36,1.36-1.36c0.75,0,1.36,0.61,1.36,1.36C269.53,469.93,268.92,470.54,268.17,470.54z"/>
			</g>
			<path id="XMLID_46_" class="st5" d="M281.6,466.81c-0.29-0.12-0.81-0.31-1.38-0.24c-0.55,0.07-0.84,0.34-0.84,1.01v0.87h2.23
				v1.72h-2.23v5.45h-1.93v-5.45h-1.34v-1.72h1.34v-0.89c0-1.68,0.9-2.78,2.57-2.78c0.64,0,1.16,0.12,1.59,0.31L281.6,466.81z"/>
			<path id="XMLID_44_" class="st5" d="M286.3,470.14c-0.18-0.03-0.36-0.05-0.53-0.05c-0.9,0-1.51,0.55-1.51,1.61v3.91h-1.93v-7.17
				h1.87v0.78c0.45-0.67,1.14-0.98,2.02-0.98c0.41,0,0.85,0.13,1.09,0.34L286.3,470.14z"/>
			<path id="XMLID_41_" class="st5" d="M293.97,472.02c0,0.22-0.01,0.49-0.04,0.65h-5.08c0.21,1.04,0.93,1.49,1.84,1.49
				c0.62,0,1.3-0.25,1.81-0.69l1.13,1.24c-0.81,0.75-1.85,1.09-3.06,1.09c-2.2,0-3.72-1.5-3.72-3.75c0-2.26,1.48-3.8,3.63-3.8
				C292.54,468.25,293.96,469.78,293.97,472.02z M288.85,471.35h3.18c-0.18-0.92-0.73-1.44-1.56-1.44
				C289.55,469.91,289.02,470.46,288.85,471.35z"/>
			<path id="XMLID_38_" class="st5" d="M301.62,472.02c0,0.22-0.01,0.49-0.04,0.65h-5.08c0.21,1.04,0.93,1.49,1.84,1.49
				c0.62,0,1.3-0.25,1.81-0.69l1.13,1.24c-0.81,0.75-1.85,1.09-3.06,1.09c-2.2,0-3.72-1.5-3.72-3.75c0-2.26,1.48-3.8,3.63-3.8
				C300.2,468.25,301.61,469.78,301.62,472.02z M296.5,471.35h3.18c-0.18-0.92-0.73-1.44-1.56-1.44
				C297.21,469.91,296.67,470.46,296.5,471.35z"/>
			<path id="XMLID_35_" class="st5" d="M309.96,472.02c0,2.15-1.49,3.77-3.47,3.77c-0.96,0-1.64-0.38-2.11-0.93v3.71h-1.92v-10.13
				h1.89v0.79c0.47-0.58,1.15-0.98,2.14-0.98C308.47,468.25,309.96,469.87,309.96,472.02z M304.29,472.02
				c0,1.13,0.75,1.98,1.84,1.98c1.14,0,1.85-0.88,1.85-1.98c0-1.1-0.71-1.98-1.85-1.98C305.03,470.05,304.29,470.89,304.29,472.02z"
				/>
			<path id="XMLID_32_" class="st5" d="M313.07,466.09c0,0.7-0.54,1.23-1.24,1.23c-0.7,0-1.23-0.53-1.23-1.23
				c0-0.7,0.53-1.24,1.23-1.24C312.53,464.85,313.07,465.4,313.07,466.09z M312.81,475.61h-1.93v-7.17h1.93V475.61z"/>
			<path id="XMLID_30_" class="st5" d="M316.03,470.99l2.7-2.55h2.37l-3.48,3.38l3.5,3.8h-2.38l-2.72-2.9v2.9h-1.93v-10.66h1.93
				V470.99z"/>
		</g>
		<g>
			<path class="st5" d="M184.41,475.55v-1.05c-0.53,0.72-1.39,1.23-2.39,1.23c-1.85,0-3.15-1.41-3.15-3.71
				c0-2.26,1.29-3.72,3.15-3.72c0.95,0,1.82,0.47,2.39,1.25v-3.76h1.1v9.77H184.41z M184.41,473.63v-3.21
				c-0.4-0.62-1.24-1.14-2.12-1.14c-1.42,0-2.27,1.17-2.27,2.74c0,1.57,0.85,2.72,2.27,2.72
				C183.17,474.74,184.02,474.24,184.41,473.63z"/>
			<path class="st5" d="M186.93,472c0-2.05,1.46-3.71,3.49-3.71c2.14,0,3.4,1.67,3.4,3.79v0.28h-5.73c0.09,1.33,1.03,2.45,2.55,2.45
				c0.81,0,1.63-0.32,2.18-0.89l0.53,0.72c-0.7,0.7-1.65,1.08-2.81,1.08C188.44,475.72,186.93,474.21,186.93,472z M190.4,469.21
				c-1.51,0-2.26,1.27-2.31,2.36h4.64C192.72,470.51,192.01,469.21,190.4,469.21z"/>
			<path class="st5" d="M194.61,474.61l0.57-0.79c0.47,0.54,1.36,1.01,2.33,1.01c1.08,0,1.67-0.51,1.67-1.22
				c0-1.71-4.38-0.66-4.38-3.28c0-1.1,0.95-2.04,2.64-2.04c1.2,0,2.05,0.45,2.62,1.03l-0.51,0.76c-0.42-0.51-1.2-0.89-2.11-0.89
				c-0.97,0-1.57,0.48-1.57,1.11c0,1.55,4.38,0.53,4.38,3.28c0,1.19-0.95,2.14-2.78,2.14C196.31,475.72,195.32,475.37,194.61,474.61
				z"/>
			<path class="st5" d="M201.48,466.73c0-0.41,0.34-0.75,0.73-0.75c0.41,0,0.75,0.34,0.75,0.75c0,0.41-0.34,0.73-0.75,0.73
				C201.81,467.46,201.48,467.14,201.48,466.73z M201.67,475.55v-7.07h1.1v7.07H201.67z"/>
			<path class="st5" d="M204.58,477.36l0.56-0.82c0.59,0.7,1.29,0.97,2.3,0.97c1.17,0,2.27-0.57,2.27-2.12v-1.01
				c-0.51,0.72-1.38,1.26-2.37,1.26c-1.85,0-3.15-1.38-3.15-3.66c0-2.27,1.29-3.68,3.15-3.68c0.95,0,1.8,0.47,2.37,1.25v-1.07h1.1
				v6.87c0,2.34-1.64,3.08-3.37,3.08C206.24,478.42,205.42,478.18,204.58,477.36z M209.71,473.51v-3.09
				c-0.38-0.62-1.23-1.14-2.11-1.14c-1.42,0-2.27,1.13-2.27,2.7c0,1.55,0.85,2.7,2.27,2.7
				C208.48,474.67,209.33,474.13,209.71,473.51z"/>
			<path class="st5" d="M217.41,475.55v-4.63c0-1.24-0.63-1.64-1.58-1.64c-0.86,0-1.68,0.53-2.09,1.1v5.17h-1.1v-7.07h1.1v1.03
				c0.5-0.59,1.46-1.2,2.52-1.2c1.48,0,2.26,0.75,2.26,2.28v4.97H217.41z"/>
			<path class="st5" d="M219.93,472c0-2.05,1.46-3.71,3.49-3.71c2.14,0,3.4,1.67,3.4,3.79v0.28h-5.73c0.09,1.33,1.03,2.45,2.55,2.45
				c0.81,0,1.63-0.32,2.18-0.89l0.53,0.72c-0.7,0.7-1.66,1.08-2.81,1.08C221.44,475.72,219.93,474.21,219.93,472z M223.4,469.21
				c-1.51,0-2.26,1.27-2.31,2.36h4.64C225.72,470.51,225.02,469.21,223.4,469.21z"/>
			<path class="st5" d="M233.35,475.55v-1.05c-0.53,0.72-1.39,1.23-2.39,1.23c-1.85,0-3.15-1.41-3.15-3.71
				c0-2.26,1.29-3.72,3.15-3.72c0.95,0,1.82,0.47,2.39,1.25v-3.76h1.1v9.77H233.35z M233.35,473.63v-3.21
				c-0.4-0.62-1.25-1.14-2.12-1.14c-1.42,0-2.27,1.17-2.27,2.74c0,1.57,0.85,2.72,2.27,2.72
				C232.1,474.74,232.95,474.24,233.35,473.63z"/>
			<path class="st5" d="M239.69,475.55v-9.77h1.1v3.76c0.57-0.78,1.42-1.25,2.39-1.25c1.85,0,3.15,1.46,3.15,3.72
				c0,2.3-1.3,3.71-3.15,3.71c-1,0-1.86-0.51-2.39-1.23v1.05H239.69z M242.9,474.74c1.44,0,2.29-1.16,2.29-2.72
				c0-1.57-0.85-2.74-2.29-2.74c-0.86,0-1.73,0.53-2.11,1.14v3.21C241.17,474.24,242.04,474.74,242.9,474.74z"/>
			<path class="st5" d="M247.53,477.32c0.16,0.07,0.43,0.12,0.6,0.12c0.48,0,0.81-0.16,1.05-0.75l0.47-1.07l-2.96-7.15h1.19
				l2.36,5.8l2.34-5.8h1.2l-3.54,8.51c-0.42,1.03-1.14,1.42-2.08,1.44c-0.23,0-0.6-0.04-0.81-0.1L247.53,477.32z"/>
		</g>
	</g>
</g>
</svg>
