<svg width="31" height="29" viewBox="0 0 31 29" fill="none" xmlns="http://www.w3.org/2000/svg">
<path d="M21.0304 28.9941C18.4715 28.9081 16.0916 28.2676 13.9972 27.198L14.0804 27.2368C11.3781 25.9137 9.06176 24.2989 7.0556 22.3962L7.05289 22.3937C4.164 19.7884 1.9407 16.5546 0.631873 12.9259L0.579704 12.7592C-0.528913 9.2278 -0.0369829 6.24972 1.96554 4.37172L6.63302 0L15.6963 8.48759L12.107 11.9397C11.8408 12.1889 11.6761 12.5334 11.6761 12.9138C11.6761 13.2942 11.8408 13.6387 12.107 13.8879L16.1536 17.6934C16.424 17.9444 16.7961 18.0995 17.2069 18.0995C17.6177 18.0995 17.9898 17.9444 18.2602 17.6933L21.9298 14.2893L31 22.7898L26.2813 27.1629C24.9908 28.3008 23.2479 29 21.3307 29C21.2251 29 21.12 28.9978 21.0154 28.9936L21.0304 28.9941ZM6.63293 3.66774L3.92644 6.20949C2.67918 7.37841 2.4283 9.45642 3.23349 12.0267C4.457 15.3869 6.44041 18.2477 9.00402 20.5445L9.01243 20.552C12.8567 24.1548 17.466 26.3965 21.0303 26.3965C21.116 26.402 21.2161 26.4051 21.317 26.4051C22.4754 26.4051 23.5311 25.9935 24.3269 25.3179L24.323 25.3211L27.06 22.7806L21.913 17.9543L20.2043 19.5389C19.4332 20.2559 18.3711 20.699 17.1985 20.699C16.0259 20.699 14.9638 20.2559 14.1923 19.5386L10.146 15.7334C9.37836 15.0142 8.90358 14.0204 8.90358 12.9228C8.90358 11.8252 9.37836 10.8315 10.146 10.1122L11.8089 8.51732L6.63293 3.66774Z" fill="#0E67A7"/>
</svg>
