<svg width="44" height="41" viewBox="0 0 44 41" fill="none" xmlns="http://www.w3.org/2000/svg">
<path d="M29.2006 40.5177C25.6477 40.3983 22.3432 39.509 19.4351 38.0239L19.5507 38.0779C15.7985 36.2408 12.5823 33.9988 9.7967 31.3571L9.79294 31.3535C5.78171 27.7363 2.69466 23.2464 0.877355 18.2083L0.804919 17.9769C-0.734396 13.0738 -0.0513508 8.93895 2.72915 6.33149L9.20995 0.261719L21.7942 12.0461L16.8106 16.8391C16.4409 17.1851 16.2123 17.6633 16.2123 18.1915C16.2123 18.7197 16.4409 19.198 16.8106 19.544L22.4293 24.8276C22.8047 25.176 23.3213 25.3914 23.8917 25.3914C24.4621 25.3914 24.9788 25.176 25.3543 24.8274L30.4495 20.1012L43.0435 31.9036L36.4915 37.9752C34.6997 39.5551 32.2797 40.5259 29.6177 40.5259C29.471 40.5259 29.3251 40.5229 29.1799 40.5171L29.2006 40.5177ZM9.20982 5.35408L5.45186 8.8831C3.72005 10.5061 3.3717 13.3912 4.4897 16.9599C6.18854 21.6252 8.9425 25.5971 12.5021 28.7861L12.5137 28.7965C17.8515 33.7988 24.2515 36.9112 29.2006 36.9112C29.3196 36.9188 29.4586 36.9231 29.5986 36.9231C31.207 36.9231 32.6729 36.3516 33.7778 35.4136L33.7725 35.418L37.5728 31.8908L30.4263 25.1899L28.0537 27.3899C26.9829 28.3854 25.5082 29.0006 23.8801 29.0006C22.2519 29.0006 20.7772 28.3854 19.706 27.3895L14.0877 22.1063C13.0218 21.1077 12.3626 19.7279 12.3626 18.204C12.3626 16.6801 13.0218 15.3004 14.0877 14.3018L16.3967 12.0873L9.20982 5.35408Z" fill="white"/>
</svg>
