<svg width="52" height="50" viewBox="0 0 52 50" fill="none" xmlns="http://www.w3.org/2000/svg">
<path d="M35.2767 49.9898C30.9845 49.8416 26.9924 48.7373 23.4792 46.8931L23.6188 46.9601C19.0859 44.6788 15.2004 41.8947 11.8352 38.6142L11.8307 38.6097C6.98478 34.1179 3.25537 28.5424 1.05992 22.286L0.972407 21.9987C-0.887209 15.91 -0.0620358 10.7754 3.29703 7.53744L11.1264 0L26.3292 14.6338L20.3085 20.5858C19.8619 21.0154 19.5857 21.6093 19.5857 22.2652C19.5857 22.921 19.8619 23.515 20.3085 23.9447L27.0964 30.5059C27.5499 30.9386 28.174 31.206 28.8631 31.206C29.5523 31.206 30.1764 30.9386 30.63 30.5056L36.7854 24.6367L52 39.2928L44.0847 46.8325C41.9201 48.7944 38.9965 50 35.7806 50C35.6034 50 35.4271 49.9963 35.2517 49.989L35.2767 49.9898ZM11.1262 6.32368L6.58629 10.706C4.49412 12.7214 4.07328 16.3042 5.42392 20.7358C7.47626 26.5291 10.8033 31.4615 15.1035 35.4215L15.1176 35.4344C21.5661 41.6462 29.2978 45.5112 35.2767 45.5112C35.4205 45.5207 35.5884 45.5261 35.7575 45.5261C37.7006 45.5261 39.4715 44.8164 40.8063 43.6515L40.7999 43.6571L45.391 39.277L36.7574 30.9558L33.8911 33.6877C32.5976 34.924 30.816 35.6879 28.849 35.6879C26.8821 35.6879 25.1005 34.9239 23.8065 33.6872L17.0191 27.1265C15.7314 25.8865 14.935 24.1731 14.935 22.2807C14.935 20.3883 15.7314 18.675 17.0191 17.4349L19.8085 14.685L11.1262 6.32368Z" fill="#0E67A7"/>
</svg>
