<svg width="41" height="43" viewBox="0 0 41 43" fill="none" xmlns="http://www.w3.org/2000/svg">
<path fill-rule="evenodd" clip-rule="evenodd" d="M41 30.5127V11.7356C41 8.62316 39.8039 5.63815 37.6749 3.43729C35.5458 1.23643 32.6583 0 29.6473 0H11.4831C8.47218 0 5.58458 1.23643 3.45555 3.43729C1.32651 5.63815 0.130432 8.62316 0.130432 11.7356V30.5127C0.130432 33.6252 1.32651 36.6102 3.45555 38.811C5.58458 41.0119 8.47218 42.2483 11.4831 42.2483H29.6473C32.6583 42.2483 35.5458 41.0119 37.6749 38.811C39.8039 36.6102 41 33.6252 41 30.5127ZM24.4514 6.48522C24.1875 5.66597 23.3877 5.16554 22.5632 5.30373C21.7387 5.44191 21.1328 6.17792 21.1328 7.04139V28.1656C21.1328 29.21 20.8332 30.2311 20.2719 31.0995C19.7105 31.968 18.9126 32.6449 17.9792 33.0446C17.0457 33.4443 16.0185 33.5489 15.0275 33.3451C14.0365 33.1414 13.1262 32.6384 12.4118 31.8998C11.6973 31.1612 11.2107 30.2203 11.0136 29.1958C10.8165 28.1714 10.9177 27.1096 11.3043 26.1446C11.691 25.1796 12.3458 24.3548 13.1859 23.7745C14.026 23.1942 15.0137 22.8845 16.0241 22.8845C16.9646 22.8845 17.727 22.0964 17.727 21.1242C17.727 20.152 16.9646 19.3638 16.0241 19.3638C14.3401 19.3638 12.6939 19.88 11.2937 20.8472C9.89355 21.8143 8.80222 23.189 8.15778 24.7973C7.51334 26.4056 7.34472 28.1753 7.67326 29.8827C8.00179 31.5901 8.81272 33.1584 10.0035 34.3893C11.1943 35.6203 12.7114 36.4586 14.3631 36.7982C16.0147 37.1378 17.7267 36.9635 19.2825 36.2973C20.8383 35.6311 22.1681 34.503 23.1037 33.0555C24.0393 31.6081 24.5386 29.9064 24.5386 28.1656V12.8104C26.28 14.4829 28.7331 15.8431 31.9179 15.8431C32.8583 15.8431 33.6208 15.055 33.6208 14.0828C33.6208 13.1106 32.8583 12.3224 31.9179 12.3224C29.7112 12.3224 28.0323 11.3854 26.7893 10.1656C25.5173 8.91729 24.7503 7.41321 24.4514 6.48522Z" fill="white"/>
</svg>
