<svg width="47" height="40" viewBox="0 0 47 40" fill="none" xmlns="http://www.w3.org/2000/svg">
<path d="M47 39.8553L33.513 36.4031L34.6328 32.8775L42.913 34.9969V7.2949L31.2652 4.32478L15.6531 7.80816L4.08688 4.85468V32.5383L15.7347 35.5249L27.9751 32.7749L28.9703 36.3316L15.6672 39.3291L0 35.3068V0L15.7348 4.0132L31.3469 0.529861L47 4.51739L47 39.8553ZM31.0608 18.0841H31.3101C31.3847 18.0823 31.4723 18.0812 31.5603 18.0812C36.7572 18.0812 40.9901 21.7845 41.1593 26.4102L41.1598 26.4241V26.4827C41.1598 28.7249 39.6966 31.5116 36.8132 34.7676C35.4949 36.2432 34.1538 37.5638 32.7264 38.805L32.714 38.8157L31.3163 40L29.9124 38.8193C28.4676 37.5717 27.1251 36.2558 25.8794 34.867L25.8091 34.786C22.9196 31.5409 21.4564 28.7469 21.4564 26.4808V26.4222C21.6289 21.7847 25.8607 18.0841 31.0557 18.0841H31.061H31.0607L31.0608 18.0841ZM31.3102 21.7509H31.2427C31.1874 21.7491 31.1224 21.7481 31.0572 21.7481C28.0808 21.7481 25.6549 23.8625 25.5437 26.5085L25.5434 26.5176C25.57 28.7964 28.8519 32.5512 31.304 34.8924C33.9339 32.3844 37.0421 28.7176 37.0686 26.5176C36.9572 23.8627 34.5313 21.7482 31.5549 21.7482C31.4911 21.7482 31.4276 21.7492 31.3642 21.7511L31.3735 21.7509L31.3102 21.7509ZM33.2474 26.921C33.2474 27.8828 32.3782 28.6626 31.306 28.6626C30.2338 28.6626 29.3648 27.8828 29.3648 26.9209C29.3648 25.959 30.2339 25.1792 31.306 25.1792C32.3782 25.1792 33.2474 25.959 33.2474 26.921ZM17.7374 37.426H13.6504V5.91066H17.7374V37.426ZM33.3495 19.9174H29.2626V2.40892H33.3495V19.9174Z" fill="white"/>
</svg>
