<svg width="28" height="35" viewBox="0 0 28 35" fill="none" xmlns="http://www.w3.org/2000/svg">
<path d="M14 0C21.7283 0.00854493 27.9908 5.80713 28 12.9621C27.9271 15.8788 27.1671 18.6163 25.8649 21.061L25.9194 20.9478C24.607 23.5055 23.1268 25.7069 21.4157 27.7329L21.4795 27.6543C19.5003 30.05 17.3979 32.1698 15.1087 34.1032L15.0678 34.1373L14 35L12.9337 34.1358C10.6036 32.1682 8.50122 30.0484 6.61358 27.7681L6.52193 27.6528C4.8746 25.7054 3.3945 23.504 2.18224 21.161L2.08213 20.9463C0.834256 18.6153 0.0736803 15.8792 0.000442968 12.9857L0 12.9629C0.0092285 5.80713 6.27261 0.00844239 14 0ZM14 30.949C16.907 28.3175 24.7592 20.5097 24.7592 12.963C24.7592 7.46095 19.9422 3.00064 14 3.00064C8.05784 3.00064 3.24075 7.46099 3.24075 12.963C3.24075 20.5232 11.0833 28.3205 14 30.949ZM14 7.17166C17.4543 7.17166 20.2546 9.76453 20.2546 12.963C20.2546 16.1615 17.4543 18.7543 14 18.7543C10.5457 18.7543 7.74537 16.1614 7.74537 12.963C7.74906 9.7659 10.5475 7.17507 14 7.17166ZM14 15.7536C15.6645 15.7536 17.0139 14.5042 17.0139 12.963C17.0139 11.4217 15.6645 10.1723 14 10.1723C12.3355 10.1723 10.9861 11.4217 10.9861 12.963C10.988 14.5035 12.3364 15.7519 14 15.7536Z" fill="#0E67A7"/>
</svg>
