<svg width="41" height="41" viewBox="0 0 41 41" fill="none" xmlns="http://www.w3.org/2000/svg">
<path d="M34.8453 0H6.15468C2.75554 0 0 2.75554 0 6.15468V34.8453C0 38.2445 2.75554 41 6.15468 41H34.8453C38.2445 41 41 38.2445 41 34.8453V6.15468C41 2.75554 38.2445 0 34.8453 0Z" fill="white"/>
<path d="M27.3725 31.4654H29.8723L13.7424 9.38394H11.0607L27.3725 31.4654ZM28.9553 6.73705H33.4657L23.6134 18.3967L35.2036 34.262H26.1293L19.0201 24.6396L10.887 34.262H6.37388L16.9133 21.7895L5.7937 6.73438H15.1006L21.5253 15.5306L28.9553 6.73438V6.73705Z" fill="#0E67A7"/>
</svg>
