<svg width="42" height="42" viewBox="0 0 42 42" fill="none" xmlns="http://www.w3.org/2000/svg">
<path d="M35.6952 0H6.30479C2.82275 0 0 2.82275 0 6.30479V35.6952C0 39.1772 2.82275 42 6.30479 42H35.6952C39.1772 42 42 39.1772 42 35.6952V6.30479C42 2.82275 39.1772 0 35.6952 0Z" fill="white"/>
<path d="M28.0402 32.2326H30.601L14.0776 9.61262H11.3306L28.0402 32.2326ZM29.6616 6.90118H34.282L24.1894 18.8452L36.0622 35.0975H26.7666L19.4841 25.2404L11.1525 35.0975H6.52938L17.3259 22.3208L5.93506 6.89844H15.4689L22.0504 15.9092L29.6616 6.89844V6.90118Z" fill="#0E67A7"/>
</svg>
