<svg width="42" height="42" viewBox="0 0 42 42" fill="none" xmlns="http://www.w3.org/2000/svg">
<path d="M35.1428 0H6.20722C2.77907 0 0 2.77907 0 6.20722V35.1428C0 38.5709 2.77907 41.35 6.20722 41.35H35.1428C38.5709 41.35 41.35 38.5709 41.35 35.1428V6.20722C41.35 2.77907 38.5709 0 35.1428 0Z" fill="#0E67A7"/>
<path d="M27.6088 31.7351H30.13L13.8597 9.46515H11.1551L27.6061 31.7351H27.6088ZM29.2051 6.79297H33.754L23.8176 18.5522L35.5067 34.5529H26.355L19.1851 24.8484L10.9826 34.5529H6.43095L17.0603 21.974L5.84583 6.79297H15.2322L21.7117 15.6643L29.2051 6.79297Z" fill="white"/>
</svg>
