<svg width="43" height="43" viewBox="0 0 43 43" fill="none" xmlns="http://www.w3.org/2000/svg">
<path d="M35.9927 0H6.35733C2.84628 0 0 2.84628 0 6.35733V35.9927C0 39.5037 2.84628 42.35 6.35733 42.35H35.9927C39.5037 42.35 42.35 39.5037 42.35 35.9927V6.35733C42.35 2.84628 39.5037 0 35.9927 0Z" fill="#0E67A7"/>
<path d="M28.2766 32.5024H30.8588L14.1949 9.69383H11.425L28.2739 32.5024H28.2766ZM29.9115 6.95703H34.5705L24.3937 19.0006L36.3655 35.3883H26.9925L19.6492 25.4491L11.2483 35.3883H6.58658L17.473 22.5052L5.9873 6.95703H15.6006L22.2369 16.0429L29.9115 6.95703Z" fill="white"/>
</svg>
