<svg width="44" height="40" viewBox="0 0 44 40" fill="none" xmlns="http://www.w3.org/2000/svg">
<path d="M34.8571 20.0459H9.14289V16.5897H34.8571V20.0459ZM34.8571 33.3522H9.14289V29.8961H34.8571V33.3522ZM34.8571 26.6127H9.14289V23.1565H34.8571V26.6127ZM0 3.89619e-05H44V39.919H0V3.89619e-05ZM40.1905 3.45622H3.80952V36.4628H40.1905V3.45622ZM44 13.4792H0V3.89619e-05H44V13.4792ZM3.80952 10.0229H40.1905V3.45622H3.80952V10.0229ZM11.0476 8.46769H7.42857V5.0115H11.0476V8.46769ZM18.2857 8.46769H14.6667V5.0115H18.2857V8.46769ZM25.7143 8.46769H22.0953V5.0115H25.7143V8.46769Z" fill="#0D6EA8"/>
</svg>
