<svg width="44" height="44" viewBox="0 0 44 44" fill="none" xmlns="http://www.w3.org/2000/svg">
<path d="M18.3014 32.8661C21.3813 32.8661 23.878 35.3585 23.878 38.433C23.878 41.5076 21.3813 44 18.3014 44C15.2215 44 12.7248 41.5076 12.7248 38.433C12.7248 35.3585 15.2215 32.8661 18.3014 32.8661ZM18.3014 40.174C19.2645 40.174 20.0453 39.3945 20.0453 38.4331C20.0453 37.4717 19.2645 36.6922 18.3014 36.6922C17.3383 36.6922 16.5575 37.4717 16.5575 38.4331C16.5575 39.3946 17.3383 40.174 18.3014 40.174ZM34.763 32.8661C37.8429 32.8661 40.3397 35.3585 40.3397 38.433C40.3397 41.5076 37.8429 44 34.763 44C31.6831 44 29.1864 41.5076 29.1864 38.433C29.1864 35.3585 31.6831 32.8661 34.763 32.8661H34.763ZM34.763 40.174C35.7262 40.174 36.5069 39.3945 36.5069 38.4331C36.5069 37.4717 35.7262 36.6922 34.763 36.6922C33.7998 36.6922 33.0191 37.4717 33.0191 38.4331C33.0191 39.3946 33.7998 40.174 34.763 40.174ZM34.7247 36.6922H15.5595C11.9769 36.6922 9.07259 33.793 9.07259 30.2165C9.07259 27.2168 11.1158 24.6934 13.8887 23.9577L13.9339 23.9475L8.52022 6.31303C8.04803 4.85888 6.70335 3.82599 5.11693 3.82599H0V0H5.12649C8.41631 0 11.2038 2.14647 12.1602 5.11304L12.1748 5.16525V5.18437L19.0469 27.567H15.561C14.0952 27.567 12.9068 28.7533 12.9068 30.2166C12.9068 31.68 14.0951 32.8662 15.561 32.8662H34.7248L34.7247 36.6922ZM39.8682 27.5669H16.4616V23.7409H36.9783L40.1672 12.607V11.134H12.8205V7.30789H44V13.1426L39.8682 27.5669Z" fill="#0D6EA8"/>
</svg>
