<svg width="44" height="40" viewBox="0 0 44 40" fill="none" xmlns="http://www.w3.org/2000/svg">
<path d="M10.2415 20.0866C11.8126 20.0866 13.0863 21.2495 13.0863 22.684C13.0863 24.1184 11.8126 25.2814 10.2415 25.2814C8.67032 25.2814 7.39662 24.1185 7.39662 22.684C7.39662 21.2495 8.67028 20.0866 10.2415 20.0866ZM13.8449 28.225C15.416 28.225 16.6897 29.3879 16.6897 30.8224C16.6897 32.2569 15.416 33.4198 13.8448 33.4198C12.2737 33.4198 11 32.2569 11 30.8224C11 29.3879 12.2737 28.225 13.8449 28.225ZM12.138 11.6019C13.7091 11.6019 14.9828 12.7647 14.9828 14.1993C14.9828 15.6338 13.7091 16.7967 12.1379 16.7967C10.5668 16.7967 9.29308 15.6338 9.29308 14.1993C9.29308 12.7649 10.5667 11.602 12.1379 11.602L12.138 11.6019ZM19.3448 6.75351C20.9159 6.75351 22.1896 7.91638 22.1896 9.35089C22.1896 10.7854 20.916 11.9483 19.3448 11.9483C17.7736 11.9483 16.4999 10.7854 16.4999 9.35089C16.4999 7.91642 17.7736 6.75351 19.3447 6.75351H19.3448ZM28.4482 8.31192C30.0193 8.31192 31.293 9.47479 31.293 10.9093C31.293 12.3438 30.0193 13.5067 28.4482 13.5067C26.877 13.5067 25.6033 12.3438 25.6033 10.9093C25.6033 9.47483 26.877 8.31192 28.4482 8.31192ZM33.9481 15.065C35.5192 15.065 36.7929 16.2279 36.7929 17.6624C36.7929 19.0969 35.5193 20.2598 33.9481 20.2598C32.377 20.2598 31.1033 19.0969 31.1033 17.6624C31.1033 16.2279 32.3769 15.065 33.9481 15.065V15.065ZM21.8103 0.000390627C21.85 0.000156256 21.8968 0 21.9437 0C27.985 0 33.4652 2.19348 37.4811 5.75564L37.4757 5.75095C41.5016 9.31906 44 14.3064 44 19.8265C44 19.8571 44 19.8877 43.9998 19.9182V19.9135C44 19.931 44 19.9518 44 19.9725C44 22.7499 42.7921 25.2696 40.8298 27.1178L40.8326 27.1151C38.861 28.9752 36.1018 30.1299 33.0471 30.1299C33.0305 30.1299 33.0139 30.1298 32.9973 30.1297H29.9568C27.7952 30.1297 25.8857 31.1147 24.7371 32.6199L24.7234 32.6388L22.6126 35.6171C20.5786 38.2779 17.2423 39.9975 13.4659 39.9998H13.4656C13.4431 39.9999 13.4164 40 13.3897 40C9.73374 40 6.49993 38.3499 4.53276 35.821L4.51008 35.7903L4.47029 35.7348C1.70962 31.9035 0.0486446 27.2154 0.000299483 22.1761L0.000171133 22.1645V20.0866C0 20.0621 0 20.0331 0 20.004C0 14.5218 2.40557 9.55249 6.30552 5.9281L6.30236 5.93103C10.2188 2.27031 15.6795 0.000273432 21.7208 0.000273432C21.7523 0.000273432 21.7837 0.00027342 21.8151 0.000429667H21.8103L21.8103 0.000390627ZM32.9999 26.6666C36.9833 26.6578 40.2088 23.7075 40.2088 20.0693C40.2088 20.0145 40.208 19.9599 40.2066 19.9054L40.2068 19.9135V19.9098C40.2068 10.8248 32.1402 3.4599 22.1896 3.4599C22.0563 3.4599 21.9232 3.46123 21.7905 3.46381L21.8103 3.46353C11.8457 3.52341 3.79299 10.9125 3.79299 20.0188C3.79299 20.0426 3.79308 20.0665 3.79321 20.0904V20.0867V22.1646C3.84172 26.5129 5.27351 30.5471 7.70479 33.9285L7.64887 33.8457C8.94658 35.4836 11.0335 36.537 13.39 36.537C13.4165 36.537 13.4431 36.5369 13.4696 36.5366H13.4656C15.9443 36.534 18.1346 35.4091 19.4601 33.6887L19.4757 33.6674L21.5619 30.7237C23.4204 28.2636 26.4887 26.6707 29.9647 26.6667H29.9654L32.9999 26.6666Z" fill="#0D6EA8"/>
</svg>
