<svg width="44" height="43" viewBox="0 0 44 43" fill="none" xmlns="http://www.w3.org/2000/svg">
<path d="M22 0C25.0746 0 27.567 2.43525 27.567 5.43924C27.567 8.44323 25.0745 10.8785 22 10.8785C18.9254 10.8785 16.4331 8.44323 16.4331 5.43924C16.4363 2.43651 18.9268 0.0031914 21.9997 0H22H22ZM22 7.14017C22.9615 7.14017 23.7409 6.3786 23.7409 5.4392C23.7409 4.49979 22.9615 3.73826 22 3.73826C21.0385 3.73826 20.2591 4.49979 20.2591 5.4392C20.2602 6.37814 21.0389 7.13904 21.9999 7.14013H22L22 7.14017ZM29.3843 14.3551H25.5582C25.5582 12.435 23.9652 10.8785 22 10.8785C20.0349 10.8785 18.4418 12.435 18.4418 14.3551H14.6157C14.6157 10.3704 17.9218 7.14013 22 7.14013C26.0783 7.14013 29.3844 10.3703 29.3844 14.355L29.3843 14.3551ZM36.6156 21.4018C39.6903 21.4018 42.1826 23.837 42.1826 26.841C42.1826 29.845 39.6902 32.2803 36.6156 32.2803C33.5411 32.2803 31.0487 29.845 31.0487 26.841C31.052 23.8383 33.5424 21.405 36.6154 21.4018H36.6156ZM36.6156 28.542C37.5771 28.542 38.3565 27.7804 38.3565 26.841C38.3565 25.9016 37.5771 25.1401 36.6157 25.1401C35.6543 25.1401 34.8749 25.9016 34.8749 26.841C34.8759 27.78 35.6547 28.5409 36.6156 28.542ZM29.2122 35.7831C29.2122 31.7932 32.5225 28.5588 36.6061 28.5588C40.6896 28.5588 44 31.7933 44 35.7831L40.1739 35.77C40.1739 33.8448 38.5765 32.284 36.6061 32.284C34.6356 32.284 33.0382 33.8448 33.0382 35.77L29.2122 35.7831ZM7.38432 21.4018C10.4589 21.4018 12.9513 23.8371 12.9513 26.8411C12.9513 29.8451 10.4588 32.2803 7.38432 32.2803C4.30975 32.2803 1.81737 29.8451 1.81737 26.8411C1.82064 23.8383 4.31109 21.405 7.38402 21.4018H7.38432ZM7.38432 28.542C8.34574 28.542 9.12519 27.7805 9.12519 26.8411C9.12519 25.9017 8.34578 25.1401 7.38432 25.1401C6.4229 25.1401 5.64345 25.9017 5.64345 26.8411C5.64457 27.78 6.42337 28.5409 7.38432 28.542ZM14.7877 35.7831L10.9617 35.77C10.9617 33.8448 9.36432 32.284 7.39386 32.284C5.4234 32.284 3.82599 33.8448 3.82599 35.77L0 35.7831C0 31.7932 3.31039 28.5588 7.39395 28.5588C11.4775 28.5588 14.7878 31.7933 14.7878 35.7831H14.7877ZM5.67796 20.4411L1.85188 20.1943C2.33212 13.3196 6.35843 7.45843 12.1414 4.30167L12.2435 4.25044L14.0896 7.52524C9.3158 10.1157 6.05178 14.8688 5.68054 20.3936L5.67796 20.4411ZM38.3221 20.4411C37.9492 14.8696 34.6866 10.1166 29.9971 7.56656L29.9143 7.52524L31.7566 4.25044C37.6363 7.46137 41.6575 13.3219 42.1314 20.1338L42.1348 20.1944L38.3221 20.4411ZM22 42.9999C19.2471 42.9973 16.6245 42.4549 14.2364 41.4751L14.3689 41.5233L15.819 38.0635C17.646 38.8196 19.7705 39.259 22.0001 39.259C24.2297 39.259 26.3542 38.8195 28.2877 38.0246L28.181 38.0635L29.6311 41.5233C27.3754 42.4549 24.7528 42.9974 22.0009 43H22L22 42.9999Z" fill="#0D6EA8"/>
</svg>
