<svg width="42" height="42" viewBox="0 0 42 42" fill="none" xmlns="http://www.w3.org/2000/svg">
<path d="M21.3112 0H21.3114C32.7373 0 42 9.26805 42 20.7008C42 32.1335 32.7374 41.4015 21.3114 41.4015C17.9913 41.4015 14.854 40.619 12.0734 39.2283L12.1931 39.2826L0 42L2.71585 29.7979C1.38822 27.1424 0.611102 24.0124 0.611102 20.7009C0.611102 9.27268 9.86629 0.00746481 21.286 4.09931e-05H21.2867L21.3112 0ZM21.3112 37.6377C30.6597 37.6377 38.2382 30.0548 38.2382 20.7008C38.2382 11.3468 30.6597 3.7638 21.3112 3.7638H21.2867C11.9439 3.7713 4.37281 11.3514 4.37281 20.7008C4.37281 23.6145 5.1082 26.3563 6.40329 28.7507L6.35902 28.6612L6.68625 29.2747L4.9578 37.0393L12.7179 35.3099L13.3329 35.6392C15.6409 36.8951 18.3866 37.6348 21.3046 37.6377H21.3056H21.3112ZM24.296 33.3508C20.0518 33.1469 16.2968 31.2086 13.6958 28.2344L13.6808 28.217C8.4579 22.9365 8.19084 18.1282 8.88483 15.0231C9.37698 12.8427 10.4011 10.9513 11.8147 9.4262L11.8076 9.43391L13.1373 8.10337L20.8052 15.7759L20.1056 17.1779C19.8771 17.6184 19.7431 18.1397 19.7431 18.6922C19.7431 19.625 20.125 20.4685 20.7408 21.0748L20.7582 21.0922C21.3656 21.7076 22.2087 22.0888 23.1407 22.0888C23.6903 22.0888 24.209 21.9563 24.6665 21.7214L24.6477 21.7303L24.9843 21.5609L26.489 21.4537L33.8052 28.7742L32.4755 30.1048C30.3262 32.0834 27.4581 33.3096 24.3043 33.3509L24.296 33.351V33.3508ZM13.3874 13.6663C13.013 14.3383 12.7168 15.1171 12.5398 15.9403L12.5298 15.996C11.8922 19.1313 13.1805 22.353 16.3609 25.5692C18.3057 27.8532 21.1056 29.3581 24.2591 29.5849L24.296 29.587C25.7488 29.5729 27.1081 29.1852 28.2865 28.5156L28.2456 28.537L25.2364 25.526C24.6093 25.7269 23.888 25.8431 23.1397 25.844H23.1393C19.1905 25.8214 15.9981 22.6133 15.9981 18.6591C15.9981 17.9208 16.1094 17.2084 16.3161 16.538L16.3026 16.5888L13.3874 13.6663Z" fill="#0D6EA8"/>
</svg>
