<svg width="41" height="43" viewBox="0 0 41 43" fill="none" xmlns="http://www.w3.org/2000/svg">
<path d="M4.58452 0H36.372C37.5763 0 38.7314 0.494572 39.583 1.37492C40.4346 2.25526 40.913 3.44926 40.913 4.69426V37.5541C40.913 38.7991 40.4346 39.9931 39.583 40.8734C38.7314 41.7538 37.5763 42.2483 36.372 42.2483H4.58452C3.38015 42.2483 2.22512 41.7538 1.3735 40.8734C0.521889 39.9931 0.043457 38.7991 0.043457 37.5541V4.69426C0.043457 3.44926 0.521889 2.25526 1.3735 1.37492C2.22512 0.494572 3.38015 0 4.58452 0ZM34.1014 4.69426H28.4251C26.3175 4.69426 24.2961 5.55976 22.8058 7.10036C21.3155 8.64097 20.4782 10.7305 20.4782 12.9092V18.777H15.9372V25.8184H20.4782V42.2483H27.2898V25.8184H34.1014V18.777H27.2898V14.0828C27.2898 13.4603 27.529 12.8633 27.9549 12.4231C28.3807 11.9829 28.9582 11.7356 29.5604 11.7356H34.1014V4.69426Z" fill="#0E67A7"/>
</svg>
