<svg width="41" height="43" viewBox="0 0 41 43" fill="none" xmlns="http://www.w3.org/2000/svg">
<path fill-rule="evenodd" clip-rule="evenodd" d="M40.9999 30.5127V11.7356C40.9999 8.62316 39.8039 5.63815 37.6748 3.43729C35.5458 1.23643 32.6582 0 29.6473 0H11.483C8.47212 0 5.58452 1.23643 3.45549 3.43729C1.32645 5.63815 0.130371 8.62316 0.130371 11.7356V30.5127C0.130371 33.6252 1.32645 36.6102 3.45549 38.811C5.58452 41.0119 8.47212 42.2483 11.483 42.2483H29.6473C32.6582 42.2483 35.5458 41.0119 37.6748 38.811C39.8039 36.6102 40.9999 33.6252 40.9999 30.5127ZM24.4514 6.48522C24.1874 5.66598 23.3877 5.16554 22.5632 5.30373C21.7386 5.44191 21.1328 6.17792 21.1328 7.04139V28.1656C21.1328 29.21 20.8332 30.2311 20.2718 31.0995C19.7105 31.968 18.9126 32.6449 17.9791 33.0446C17.0456 33.4443 16.0184 33.5489 15.0274 33.3451C14.0364 33.1414 13.1262 32.6384 12.4117 31.8998C11.6972 31.1612 11.2107 30.2203 11.0136 29.1958C10.8164 28.1714 10.9176 27.1096 11.3043 26.1446C11.6909 25.1796 12.3457 24.3548 13.1858 23.7745C14.026 23.1942 15.0137 22.8845 16.0241 22.8845C16.9646 22.8845 17.727 22.0964 17.727 21.1242C17.727 20.152 16.9646 19.3638 16.0241 19.3638C14.3401 19.3638 12.6939 19.88 11.2937 20.8472C9.89348 21.8143 8.80216 23.189 8.15772 24.7973C7.51328 26.4056 7.34466 28.1753 7.6732 29.8827C8.00173 31.5901 8.81266 33.1584 10.0034 34.3893C11.1942 35.6203 12.7113 36.4586 14.363 36.7982C16.0146 37.1378 17.7266 36.9635 19.2824 36.2973C20.8383 35.6311 22.168 34.503 23.1036 33.0555C24.0392 31.6081 24.5386 29.9064 24.5386 28.1656V12.8104C26.2799 14.4829 28.7331 15.8431 31.9178 15.8431C32.8583 15.8431 33.6207 15.055 33.6207 14.0828C33.6207 13.1106 32.8583 12.3224 31.9178 12.3224C29.7111 12.3224 28.0323 11.3854 26.7892 10.1656C25.5172 8.91729 24.7503 7.41321 24.4514 6.48522Z" fill="#0E67A7"/>
</svg>
