<svg width="41" height="43" viewBox="0 0 41 43" fill="none" xmlns="http://www.w3.org/2000/svg">
<path d="M4.54106 0H36.3285C37.5329 0 38.6879 0.494572 39.5395 1.37492C40.3911 2.25526 40.8696 3.44926 40.8696 4.69426V37.5541C40.8696 38.7991 40.3911 39.9931 39.5395 40.8734C38.6879 41.7538 37.5329 42.2483 36.3285 42.2483H4.54106C3.3367 42.2483 2.18166 41.7538 1.33005 40.8734C0.478432 39.9931 0 38.7991 0 37.5541V4.69426C0 3.44926 0.478432 2.25526 1.33005 1.37492C2.18166 0.494572 3.3367 0 4.54106 0M33.3995 14.8573C34.4894 13.9185 35.7609 12.7919 36.3285 11.5479C35.3976 12.0408 34.285 12.3459 33.0589 12.5102C34.1942 11.6652 35.1251 10.5621 35.6019 9.05992C34.4213 9.71712 33.2179 10.2804 31.7193 10.5621C28.2 6.17295 19.7763 9.74059 21.2749 16.3125C15.3488 15.937 11.7386 13.1674 8.74155 9.76406C7.03865 12.6276 8.51449 16.9697 10.5353 18.1668C9.49082 18.0964 8.69614 17.7678 7.94686 17.3922C8.03768 21.0068 9.96763 22.7437 12.6696 23.6825C11.8522 23.8468 10.944 23.8938 10.0812 23.7529C10.9213 26.2644 12.6696 27.837 15.6667 28.1656C13.6232 29.9494 9.85411 31.1933 6.81159 30.7005C9.42271 32.4139 12.3971 33.7752 16.5295 33.5874C26.5425 33.118 33.2406 25.7011 33.3995 14.8573V14.8573Z" fill="#0E67A7"/>
</svg>
